<svg width="876" height="408" viewBox="0 0 876 408" fill="none" xmlns="http://www.w3.org/2000/svg">
<path d="M876 0V368.363C799.969 375.924 695.118 373.18 553.104 346.178C272.689 292.875 85.1087 340.077 0 371.837V0H876Z" fill="#EB5757"/>
<path d="M876 368.363V406.516C799.675 411.449 694.736 405.027 553.28 372.859C275.392 309.66 86.372 349.914 0 378.639V371.837C85.1087 340.077 272.689 292.875 553.104 346.178C695.118 373.18 799.969 375.924 876 368.363Z" fill="white"/>
<path opacity="0.49" d="M70.8008 354.848C89.0216 354.848 103.793 340.171 103.793 322.066C103.793 303.961 89.0216 289.284 70.8008 289.284C52.58 289.284 37.8091 303.961 37.8091 322.066C37.8091 340.171 52.58 354.848 70.8008 354.848Z" fill="white"/>
<path opacity="0.49" d="M591.912 364.393C610.133 364.393 624.904 349.716 624.904 331.612C624.904 313.507 610.133 298.83 591.912 298.83C573.691 298.83 558.92 313.507 558.92 331.612C558.92 349.716 573.691 364.393 591.912 364.393Z" fill="white"/>
<path opacity="0.49" d="M146.391 276.382C155.51 276.382 162.902 269.037 162.902 259.976C162.902 250.916 155.51 243.571 146.391 243.571C137.273 243.571 129.881 250.916 129.881 259.976C129.881 269.037 137.273 276.382 146.391 276.382Z" fill="white"/>
<path opacity="0.49" d="M322.487 331.641C331.605 331.641 338.997 324.296 338.997 315.235C338.997 306.175 331.605 298.83 322.487 298.83C313.368 298.83 305.976 306.175 305.976 315.235C305.976 324.296 313.368 331.641 322.487 331.641Z" fill="white"/>
<path opacity="0.49" d="M716.415 312.666C725.533 312.666 732.925 305.321 732.925 296.261C732.925 287.201 725.533 279.856 716.415 279.856C707.296 279.856 699.904 287.201 699.904 296.261C699.904 305.321 707.296 312.666 716.415 312.666Z" fill="white"/>
<path opacity="0.49" d="M50.7635 220.481C56.1664 220.481 60.5464 216.129 60.5464 210.76C60.5464 205.391 56.1664 201.039 50.7635 201.039C45.3605 201.039 40.9805 205.391 40.9805 210.76C40.9805 216.129 45.3605 220.481 50.7635 220.481Z" fill="white"/>
<path opacity="0.49" d="M790.54 351.053C795.943 351.053 800.323 346.701 800.323 341.332C800.323 335.964 795.943 331.612 790.54 331.612C785.137 331.612 780.757 335.964 780.757 341.332C780.757 346.701 785.137 351.053 790.54 351.053Z" fill="white"/>
<path opacity="0.49" d="M501.456 305.982C506.859 305.982 511.239 301.63 511.239 296.261C511.239 290.892 506.859 286.54 501.456 286.54C496.053 286.54 491.673 290.892 491.673 296.261C491.673 301.63 496.053 305.982 501.456 305.982Z" fill="white"/>
<path opacity="0.49" d="M820.504 237.587C825.907 237.587 830.287 233.235 830.287 227.866C830.287 222.498 825.907 218.146 820.504 218.146C815.101 218.146 810.721 222.498 810.721 227.866C810.721 233.235 815.101 237.587 820.504 237.587Z" fill="white"/>
<path opacity="0.49" d="M848.621 310.244C852.499 310.244 855.642 307.12 855.642 303.267C855.642 299.414 852.499 296.29 848.621 296.29C844.743 296.29 841.6 299.414 841.6 303.267C841.6 307.12 844.743 310.244 848.621 310.244Z" fill="white"/>
<path opacity="0.49" d="M220.366 299.063C225.769 299.063 230.149 294.711 230.149 289.343C230.149 283.974 225.769 279.622 220.366 279.622C214.963 279.622 210.583 283.974 210.583 289.343C210.583 294.711 214.963 299.063 220.366 299.063Z" fill="white"/>
<path opacity="0.49" d="M279.888 253.934C282.581 253.934 284.765 251.764 284.765 249.088C284.765 246.412 282.581 244.242 279.888 244.242C277.194 244.242 275.011 246.412 275.011 249.088C275.011 251.764 277.194 253.934 279.888 253.934Z" fill="white"/>
<path opacity="0.49" d="M125.006 177.19C127.699 177.19 129.883 175.021 129.883 172.345C129.883 169.668 127.699 167.499 125.006 167.499C122.313 167.499 120.129 169.668 120.129 172.345C120.129 175.021 122.313 177.19 125.006 177.19Z" fill="white"/>
<path opacity="0.49" d="M404.423 289.343C407.116 289.343 409.3 287.173 409.3 284.497C409.3 281.821 407.116 279.651 404.423 279.651C401.729 279.651 399.546 281.821 399.546 284.497C399.546 287.173 401.729 289.343 404.423 289.343Z" fill="white"/>
<path opacity="0.49" d="M743.798 196.106C746.491 196.106 748.675 193.937 748.675 191.26C748.675 188.584 746.491 186.415 743.798 186.415C741.104 186.415 738.921 188.584 738.921 191.26C738.921 193.937 741.104 196.106 743.798 196.106Z" fill="white"/>
<path d="M186.845 207.783C177.659 207.783 169.906 205.323 163.586 200.406L168.473 178.417C175.183 181.916 181.177 183.666 186.454 183.666C189.32 183.666 191.405 183.192 192.708 182.247C194.076 181.206 194.76 179.693 194.76 177.707C194.76 176.383 194.402 175.248 193.685 174.303C192.969 173.262 191.535 172.127 189.385 170.898C187.235 169.669 184.011 168.155 179.711 166.358C174.434 164.088 170.329 160.4 167.398 155.293C164.466 150.091 163 144.133 163 137.418C163 127.014 165.345 119.165 170.036 113.868C174.792 108.477 181.177 105.782 189.19 105.782C193.359 105.782 197.464 106.443 201.503 107.768C205.543 108.997 209.125 110.841 212.253 113.301L206.976 134.722C203.327 132.926 200.135 131.649 197.399 130.892C194.728 130.041 192.122 129.615 189.581 129.615C185.281 129.615 183.131 131.317 183.131 134.722C183.131 136.425 183.815 137.891 185.183 139.12C186.616 140.255 189.516 141.721 193.881 143.518C200.721 146.166 205.901 150.233 209.419 155.718C212.937 161.109 214.696 167.587 214.696 175.154C214.696 185.652 212.35 193.738 207.66 199.413C202.969 204.993 196.031 207.783 186.845 207.783ZM247.706 206.648C242.299 206.648 237.478 205.087 233.243 201.966C229.074 198.751 225.816 194.4 223.471 188.915C221.126 183.334 219.953 177.046 219.953 170.047C219.953 162.859 221.158 156.475 223.569 150.895C225.979 145.314 229.237 141.012 233.341 137.985C237.445 134.958 242.006 133.445 247.022 133.445C251.844 133.445 255.948 135.006 259.335 138.127C262.789 141.154 265.362 145.314 267.056 150.611C268.75 155.812 269.596 161.677 269.596 168.202C269.596 169.905 269.532 171.134 269.401 171.891L240.084 177.424C240.866 180.734 242.136 183.146 243.895 184.659C245.654 186.077 247.967 186.787 250.834 186.787C255.264 186.787 260.052 185.132 265.199 181.821L267.642 200.831C261.583 204.709 254.938 206.648 247.706 206.648ZM254.449 159.549C253.407 153.59 250.931 150.611 247.022 150.611C244.677 150.611 242.82 151.888 241.452 154.441C240.084 156.995 239.367 160.306 239.302 164.372L254.449 159.549ZM276.697 135.432H297.317V149.902C298.816 144.321 300.835 140.207 303.376 137.56C305.982 134.816 309.011 133.445 312.464 133.445L315.298 156.569C309.109 156.569 304.549 157.563 301.617 159.549C298.75 161.441 297.317 164.466 297.317 168.628V205.513H276.697V135.432ZM345.621 206.648C340.213 206.648 335.393 205.087 331.158 201.966C326.988 198.751 323.731 194.4 321.385 188.915C319.04 183.334 317.867 177.046 317.867 170.047C317.867 162.859 319.073 156.475 321.483 150.895C323.893 145.314 327.151 141.012 331.255 137.985C335.36 134.958 339.92 133.445 344.937 133.445C349.758 133.445 353.862 135.006 357.25 138.127C360.703 141.154 363.276 145.314 364.97 150.611C366.664 155.812 367.511 161.677 367.511 168.202C367.511 169.905 367.446 171.134 367.315 171.891L337.998 177.424C338.78 180.734 340.051 183.146 341.81 184.659C343.569 186.077 345.881 186.787 348.748 186.787C353.178 186.787 357.967 185.132 363.113 181.821L365.556 200.831C359.497 204.709 352.852 206.648 345.621 206.648ZM352.364 159.549C351.322 153.59 348.846 150.611 344.937 150.611C342.591 150.611 340.735 151.888 339.366 154.441C337.998 156.995 337.281 160.306 337.217 164.372L352.364 159.549ZM374.612 135.432H394.254V149.902C398.033 138.931 404.027 133.445 412.235 133.445C418.49 133.445 423.376 136.708 426.894 143.234C430.477 149.666 432.269 158.603 432.269 170.047V205.513H411.747V167.067C411.747 163.001 411.128 159.88 409.89 157.704C408.717 155.529 407.056 154.441 404.906 154.441C403.342 154.441 401.812 155.198 400.313 156.711C398.814 158.13 397.577 160.21 396.6 162.953C395.687 165.696 395.231 168.818 395.231 172.316V205.513H374.612V135.432ZM463.103 206.648C458.672 206.648 454.634 204.945 450.985 201.541C447.402 198.136 444.568 193.644 442.483 188.063C440.398 182.389 439.356 176.383 439.356 170.047C439.356 163.331 440.431 157.185 442.581 151.604C444.796 145.93 447.727 141.484 451.376 138.269C455.089 135.054 459.031 133.445 463.2 133.445C466.979 133.445 470.172 134.58 472.777 136.85C475.449 139.12 477.599 142.761 479.227 147.774V112.024L499.847 107.626V205.513H479.227V192.319C476.165 201.872 470.79 206.648 463.103 206.648ZM469.552 184.233C472.289 184.233 474.569 182.815 476.393 179.977C478.283 177.14 479.227 173.829 479.227 170.047V169.479C479.227 165.791 478.25 162.622 476.295 159.974C474.341 157.231 472.093 155.86 469.552 155.86C466.816 155.86 464.504 157.279 462.614 160.116C460.79 162.859 459.878 166.169 459.878 170.047C459.878 174.019 460.822 177.376 462.712 180.119C464.666 182.862 466.947 184.233 469.552 184.233ZM527.04 206.648C521.567 206.648 517.3 204.094 514.238 198.987C511.176 193.88 509.645 186.929 509.645 178.133V134.438H530.362V176.856C530.362 179.032 530.753 180.734 531.535 181.963C532.382 183.098 533.457 183.666 534.76 183.666C536.063 183.666 537.399 183.098 538.767 181.963L539.842 201.683C538.409 203.291 536.519 204.52 534.174 205.371C531.893 206.222 529.516 206.648 527.04 206.648ZM520.004 123.799C516.941 123.799 514.336 122.428 512.186 119.685C510.101 116.847 509.059 113.395 509.059 109.328C509.059 105.262 510.166 101.857 512.381 99.1141C514.596 96.371 517.137 95 520.004 95C523 95 525.574 96.4186 527.724 99.2559C529.939 102.093 531.047 105.45 531.047 109.328C531.047 113.49 529.939 116.941 527.724 119.685C525.509 122.428 522.935 123.799 520.004 123.799ZM545.532 135.432H566.152V147.774C569.279 138.221 574.589 133.445 582.081 133.445C586.446 133.445 590.452 135.054 594.101 138.269C597.815 141.39 600.713 145.74 602.798 151.32C604.948 156.901 606.023 163.143 606.023 170.047C606.023 176.95 604.916 183.192 602.701 188.773C600.551 194.353 597.619 198.751 593.906 201.966C590.257 205.087 586.348 206.648 582.179 206.648C574.752 206.648 569.41 201.872 566.152 192.319V223.955L545.532 229.63V135.432ZM575.924 184.233C578.596 184.233 580.876 182.815 582.765 179.977C584.655 177.14 585.599 173.829 585.599 170.047C585.599 166.074 584.622 162.717 582.667 159.974C580.778 157.231 578.53 155.86 575.924 155.86C573.253 155.86 570.973 157.231 569.084 159.974C567.194 162.622 566.25 165.791 566.25 169.479V170.047C566.25 174.019 567.194 177.376 569.084 180.119C571.038 182.862 573.319 184.233 575.924 184.233ZM630.68 206.648C625.208 206.648 620.941 204.094 617.878 198.987C614.816 193.88 613.285 186.929 613.285 178.133V134.438H634.003V176.856C634.003 179.032 634.394 180.734 635.175 181.963C636.022 183.098 637.097 183.666 638.4 183.666C639.704 183.666 641.039 183.098 642.407 181.963L643.482 201.683C642.049 203.291 640.159 204.52 637.814 205.371C635.533 206.222 633.156 206.648 630.68 206.648ZM623.644 123.799C620.582 123.799 617.976 122.428 615.826 119.685C613.741 116.847 612.699 113.395 612.699 109.328C612.699 105.262 613.807 101.857 616.022 99.1141C618.236 96.371 620.777 95 623.644 95C626.641 95 629.214 96.4186 631.364 99.2559C633.579 102.093 634.687 105.45 634.687 109.328C634.687 113.49 633.579 116.941 631.364 119.685C629.149 122.428 626.576 123.799 623.644 123.799ZM669.524 206.648C663.792 206.648 659.328 204.284 656.136 199.555C652.944 194.731 651.348 188.111 651.348 179.693V152.03H645.094V134.438H652.814L661.902 107.626H671.772V134.438H683.108V152.03H671.772V176.147C671.772 178.511 672.294 180.355 673.336 181.68C674.378 183.004 675.844 183.666 677.733 183.666C679.492 183.666 681.089 183.098 682.522 181.963L683.303 201.824C681.675 203.243 679.557 204.426 676.951 205.371C674.411 206.222 671.935 206.648 669.524 206.648ZM716.585 238C713.002 238 709.582 237.48 706.324 236.44L707.888 215.443C710.429 216.011 712.774 216.295 714.924 216.295C718.768 216.295 721.7 214.592 723.719 211.188C725.738 207.877 726.781 201.588 726.846 192.319C723.459 201.777 718.018 206.506 710.526 206.506C704.207 206.506 699.255 203.291 695.672 196.859C692.154 190.333 690.395 181.348 690.395 169.905V134.438H710.917V174.303C710.917 177.518 711.536 180.213 712.774 182.389C714.012 184.469 715.706 185.51 717.856 185.51C720.07 185.51 721.862 184.139 723.23 181.396C724.663 178.653 725.38 175.06 725.38 170.614V134.438H746V187.496C746 203.952 743.459 216.484 738.378 225.09C733.296 233.696 726.032 238 716.585 238Z" fill="white"/>
</svg>
